<svg width="235" height="191" viewBox="0 0 235 191" fill="none" xmlns="http://www.w3.org/2000/svg">
    <path d="M10.7614 187V177.752L6.64944 184.936H5.94544L1.81744 177.752V187H0.697438V175.64H1.84944L6.28144 183.416L10.7454 175.64H11.8814V187H10.7614ZM13.7546 184.6C13.7546 184.077 13.9039 183.629 14.2026 183.256C14.5012 182.872 14.9119 182.579 15.4346 182.376C15.9679 182.163 16.5812 182.056 17.2746 182.056C17.6799 182.056 18.1012 182.088 18.5386 182.152C18.9759 182.216 19.3652 182.312 19.7066 182.44V181.736C19.7066 181.032 19.4986 180.472 19.0826 180.056C18.6666 179.64 18.0906 179.432 17.3546 179.432C16.9066 179.432 16.4639 179.517 16.0266 179.688C15.5999 179.848 15.1519 180.088 14.6826 180.408L14.2666 179.64C14.8106 179.267 15.3439 178.989 15.8666 178.808C16.3892 178.616 16.9226 178.52 17.4666 178.52C18.4906 178.52 19.3012 178.813 19.8986 179.4C20.4959 179.987 20.7946 180.797 20.7946 181.832V185.688C20.7946 185.837 20.8266 185.949 20.8906 186.024C20.9546 186.088 21.0559 186.125 21.1946 186.136V187C21.0772 187.011 20.9759 187.021 20.8906 187.032C20.8052 187.043 20.7412 187.043 20.6986 187.032C20.4319 187.021 20.2292 186.936 20.0906 186.776C19.9519 186.616 19.8772 186.445 19.8666 186.264L19.8506 185.656C19.4772 186.136 18.9919 186.509 18.3946 186.776C17.7972 187.032 17.1892 187.16 16.5706 187.16C16.0372 187.16 15.5519 187.048 15.1146 186.824C14.6879 186.589 14.3519 186.28 14.1066 185.896C13.8719 185.501 13.7546 185.069 13.7546 184.6ZM19.3386 185.24C19.4559 185.091 19.5466 184.947 19.6106 184.808C19.6746 184.669 19.7066 184.547 19.7066 184.44V183.224C19.3439 183.085 18.9652 182.979 18.5706 182.904C18.1866 182.829 17.7972 182.792 17.4026 182.792C16.6239 182.792 15.9946 182.947 15.5146 183.256C15.0346 183.565 14.7946 183.987 14.7946 184.52C14.7946 184.829 14.8746 185.123 15.0346 185.4C15.1946 185.667 15.4292 185.891 15.7386 186.072C16.0479 186.243 16.4106 186.328 16.8266 186.328C17.3492 186.328 17.8346 186.227 18.2826 186.024C18.7412 185.821 19.0932 185.56 19.3386 185.24ZM27.3053 179.624C26.58 179.645 25.94 179.848 25.3853 180.232C24.8413 180.616 24.4573 181.144 24.2333 181.816V187H23.1453V178.664H24.1693V180.664C24.4573 180.077 24.836 179.603 25.3053 179.24C25.7853 178.877 26.292 178.675 26.8253 178.632C26.932 178.621 27.0226 178.616 27.0973 178.616C27.1826 178.616 27.252 178.621 27.3053 178.632V179.624ZM32.1051 187.16C31.4971 187.16 30.9371 187.048 30.4251 186.824C29.9237 186.589 29.4811 186.269 29.0971 185.864C28.7237 185.459 28.4304 184.995 28.2171 184.472C28.0144 183.949 27.9131 183.395 27.9131 182.808C27.9131 182.019 28.0891 181.299 28.4411 180.648C28.7931 179.997 29.2837 179.48 29.9131 179.096C30.5424 178.712 31.2677 178.52 32.0891 178.52C32.8677 178.52 33.5557 178.701 34.1531 179.064C34.7504 179.416 35.1931 179.896 35.4811 180.504L34.4251 180.84C34.1904 180.413 33.8597 180.083 33.4331 179.848C33.0171 179.603 32.5531 179.48 32.0411 179.48C31.4864 179.48 30.9797 179.624 30.5211 179.912C30.0624 180.2 29.6944 180.595 29.4171 181.096C29.1504 181.597 29.0171 182.168 29.0171 182.808C29.0171 183.437 29.1557 184.008 29.4331 184.52C29.7104 185.032 30.0784 185.443 30.5371 185.752C30.9957 186.051 31.5024 186.2 32.0571 186.2C32.4197 186.2 32.7664 186.136 33.0971 186.008C33.4384 185.88 33.7317 185.709 33.9771 185.496C34.2331 185.272 34.4037 185.032 34.4891 184.776L35.5611 185.096C35.4117 185.491 35.1611 185.848 34.8091 186.168C34.4677 186.477 34.0624 186.723 33.5931 186.904C33.1344 187.075 32.6384 187.16 32.1051 187.16ZM36.5983 184.6C36.5983 184.077 36.7476 183.629 37.0463 183.256C37.345 182.872 37.7556 182.579 38.2783 182.376C38.8116 182.163 39.425 182.056 40.1183 182.056C40.5236 182.056 40.945 182.088 41.3823 182.152C41.8196 182.216 42.209 182.312 42.5503 182.44V181.736C42.5503 181.032 42.3423 180.472 41.9263 180.056C41.5103 179.64 40.9343 179.432 40.1983 179.432C39.7503 179.432 39.3076 179.517 38.8703 179.688C38.4436 179.848 37.9956 180.088 37.5263 180.408L37.1103 179.64C37.6543 179.267 38.1876 178.989 38.7103 178.808C39.233 178.616 39.7663 178.52 40.3103 178.52C41.3343 178.52 42.145 178.813 42.7423 179.4C43.3396 179.987 43.6383 180.797 43.6383 181.832V185.688C43.6383 185.837 43.6703 185.949 43.7343 186.024C43.7983 186.088 43.8996 186.125 44.0383 186.136V187C43.921 187.011 43.8196 187.021 43.7343 187.032C43.649 187.043 43.585 187.043 43.5423 187.032C43.2756 187.021 43.073 186.936 42.9343 186.776C42.7956 186.616 42.721 186.445 42.7103 186.264L42.6943 185.656C42.321 186.136 41.8356 186.509 41.2383 186.776C40.641 187.032 40.033 187.16 39.4143 187.16C38.881 187.16 38.3956 187.048 37.9583 186.824C37.5316 186.589 37.1956 186.28 36.9503 185.896C36.7156 185.501 36.5983 185.069 36.5983 184.6ZM42.1823 185.24C42.2996 185.091 42.3903 184.947 42.4543 184.808C42.5183 184.669 42.5503 184.547 42.5503 184.44V183.224C42.1876 183.085 41.809 182.979 41.4143 182.904C41.0303 182.829 40.641 182.792 40.2463 182.792C39.4676 182.792 38.8383 182.947 38.3583 183.256C37.8783 183.565 37.6383 183.987 37.6383 184.52C37.6383 184.829 37.7183 185.123 37.8783 185.4C38.0383 185.667 38.273 185.891 38.5823 186.072C38.8916 186.243 39.2543 186.328 39.6703 186.328C40.193 186.328 40.6783 186.227 41.1263 186.024C41.585 185.821 41.937 185.56 42.1823 185.24ZM54.3232 187.16C53.6299 187.16 53.0059 186.979 52.4512 186.616C51.9072 186.253 51.4752 185.805 51.1552 185.272V190.408H50.0672V178.664H51.0432V180.28C51.3739 179.757 51.8165 179.336 52.3712 179.016C52.9259 178.685 53.5179 178.52 54.1472 178.52C54.7232 178.52 55.2512 178.643 55.7312 178.888C56.2112 179.123 56.6272 179.443 56.9792 179.848C57.3312 180.253 57.6032 180.717 57.7952 181.24C57.9979 181.752 58.0992 182.285 58.0992 182.84C58.0992 183.619 57.9392 184.339 57.6192 185C57.3099 185.651 56.8725 186.173 56.3072 186.568C55.7419 186.963 55.0805 187.16 54.3232 187.16ZM54.0192 186.2C54.4779 186.2 54.8885 186.109 55.2512 185.928C55.6139 185.736 55.9232 185.48 56.1792 185.16C56.4459 184.84 56.6485 184.483 56.7872 184.088C56.9259 183.683 56.9952 183.267 56.9952 182.84C56.9952 182.392 56.9152 181.965 56.7552 181.56C56.6059 181.155 56.3872 180.797 56.0992 180.488C55.8112 180.179 55.4805 179.933 55.1072 179.752C54.7339 179.571 54.3285 179.48 53.8912 179.48C53.6139 179.48 53.3259 179.533 53.0272 179.64C52.7285 179.747 52.4405 179.901 52.1632 180.104C51.8965 180.296 51.6725 180.515 51.4912 180.76C51.3099 181.005 51.1979 181.267 51.1552 181.544V184.104C51.3259 184.499 51.5552 184.856 51.8432 185.176C52.1312 185.485 52.4619 185.736 52.8352 185.928C53.2192 186.109 53.6139 186.2 54.0192 186.2ZM59.2702 184.6C59.2702 184.077 59.4195 183.629 59.7182 183.256C60.0169 182.872 60.4275 182.579 60.9502 182.376C61.4835 182.163 62.0969 182.056 62.7902 182.056C63.1955 182.056 63.6169 182.088 64.0542 182.152C64.4915 182.216 64.8809 182.312 65.2222 182.44V181.736C65.2222 181.032 65.0142 180.472 64.5982 180.056C64.1822 179.64 63.6062 179.432 62.8702 179.432C62.4222 179.432 61.9795 179.517 61.5422 179.688C61.1155 179.848 60.6675 180.088 60.1982 180.408L59.7822 179.64C60.3262 179.267 60.8595 178.989 61.3822 178.808C61.9049 178.616 62.4382 178.52 62.9822 178.52C64.0062 178.52 64.8169 178.813 65.4142 179.4C66.0115 179.987 66.3102 180.797 66.3102 181.832V185.688C66.3102 185.837 66.3422 185.949 66.4062 186.024C66.4702 186.088 66.5715 186.125 66.7102 186.136V187C66.5929 187.011 66.4915 187.021 66.4062 187.032C66.3209 187.043 66.2569 187.043 66.2142 187.032C65.9475 187.021 65.7449 186.936 65.6062 186.776C65.4675 186.616 65.3929 186.445 65.3822 186.264L65.3662 185.656C64.9929 186.136 64.5075 186.509 63.9102 186.776C63.3129 187.032 62.7049 187.16 62.0862 187.16C61.5529 187.16 61.0675 187.048 60.6302 186.824C60.2035 186.589 59.8675 186.28 59.6222 185.896C59.3875 185.501 59.2702 185.069 59.2702 184.6ZM64.8542 185.24C64.9715 185.091 65.0622 184.947 65.1262 184.808C65.1902 184.669 65.2222 184.547 65.2222 184.44V183.224C64.8595 183.085 64.4809 182.979 64.0862 182.904C63.7022 182.829 63.3129 182.792 62.9182 182.792C62.1395 182.792 61.5102 182.947 61.0302 183.256C60.5502 183.565 60.3102 183.987 60.3102 184.52C60.3102 184.829 60.3902 185.123 60.5502 185.4C60.7102 185.667 60.9449 185.891 61.2542 186.072C61.5635 186.243 61.9262 186.328 62.3422 186.328C62.8649 186.328 63.3502 186.227 63.7982 186.024C64.2569 185.821 64.6089 185.56 64.8542 185.24ZM63.3342 177.08L62.6142 176.808L63.5582 175.32H64.7102L63.3342 177.08ZM72.0049 187.112C71.4396 187.112 70.9169 186.995 70.4369 186.76C69.9569 186.525 69.5409 186.211 69.1889 185.816C68.8476 185.411 68.5809 184.952 68.3889 184.44C68.1969 183.928 68.1009 183.4 68.1009 182.856C68.1009 182.269 68.1916 181.72 68.3729 181.208C68.5649 180.685 68.8316 180.221 69.1729 179.816C69.5249 179.411 69.9356 179.096 70.4049 178.872C70.8743 178.637 71.3969 178.52 71.9729 178.52C72.6876 178.52 73.3063 178.701 73.8289 179.064C74.3623 179.427 74.8103 179.875 75.1729 180.408V178.664H76.1489V187.032C76.1489 187.8 75.9623 188.445 75.5889 188.968C75.2263 189.501 74.7303 189.901 74.1009 190.168C73.4823 190.435 72.8049 190.568 72.0689 190.568C71.1196 190.568 70.3516 190.397 69.7649 190.056C69.1783 189.715 68.6983 189.256 68.3249 188.68L68.9969 188.152C69.3276 188.675 69.7649 189.064 70.3089 189.32C70.8636 189.576 71.4503 189.704 72.0689 189.704C72.6129 189.704 73.1089 189.603 73.5569 189.4C74.0156 189.208 74.3783 188.915 74.6449 188.52C74.9223 188.125 75.0609 187.629 75.0609 187.032V185.384C74.7409 185.907 74.3036 186.328 73.7489 186.648C73.1943 186.957 72.6129 187.112 72.0049 187.112ZM72.3089 186.2C72.6396 186.2 72.9543 186.141 73.2529 186.024C73.5623 185.907 73.8449 185.752 74.1009 185.56C74.3569 185.357 74.5703 185.133 74.7409 184.888C74.9116 184.643 75.0183 184.392 75.0609 184.136V181.56C74.9009 181.155 74.6716 180.797 74.3729 180.488C74.0743 180.168 73.7329 179.923 73.3489 179.752C72.9756 179.571 72.5863 179.48 72.1809 179.48C71.7116 179.48 71.2903 179.581 70.9169 179.784C70.5543 179.976 70.2449 180.237 69.9889 180.568C69.7436 180.888 69.5516 181.251 69.4129 181.656C69.2743 182.061 69.2049 182.467 69.2049 182.872C69.2049 183.32 69.2849 183.747 69.4449 184.152C69.6049 184.547 69.8236 184.904 70.1009 185.224C70.3889 185.533 70.7196 185.773 71.0929 185.944C71.4769 186.115 71.8823 186.2 72.3089 186.2ZM78.5516 187V178.664H79.6396V187H78.5516ZM78.5516 176.92V175.32H79.6396V176.92H78.5516ZM89.0439 187H87.9559V182.344C87.9559 181.363 87.8119 180.648 87.5239 180.2C87.2359 179.741 86.7826 179.512 86.1639 179.512C85.7373 179.512 85.3159 179.619 84.8999 179.832C84.4839 180.035 84.1159 180.317 83.7959 180.68C83.4866 181.032 83.2626 181.437 83.1239 181.896V187H82.0359V178.664H83.0279V180.552C83.2519 180.147 83.5453 179.795 83.9079 179.496C84.2706 179.187 84.6813 178.947 85.1399 178.776C85.5986 178.605 86.0733 178.52 86.5639 178.52C87.0226 178.52 87.4119 178.605 87.7319 178.776C88.0519 178.947 88.3079 179.192 88.4999 179.512C88.6919 179.821 88.8306 180.2 88.9159 180.648C89.0013 181.085 89.0439 181.576 89.0439 182.12V187ZM90.6921 184.6C90.6921 184.077 90.8414 183.629 91.1401 183.256C91.4387 182.872 91.8494 182.579 92.3721 182.376C92.9054 182.163 93.5187 182.056 94.2121 182.056C94.6174 182.056 95.0387 182.088 95.4761 182.152C95.9134 182.216 96.3027 182.312 96.6441 182.44V181.736C96.6441 181.032 96.4361 180.472 96.0201 180.056C95.6041 179.64 95.0281 179.432 94.2921 179.432C93.8441 179.432 93.4014 179.517 92.9641 179.688C92.5374 179.848 92.0894 180.088 91.6201 180.408L91.2041 179.64C91.7481 179.267 92.2814 178.989 92.8041 178.808C93.3267 178.616 93.8601 178.52 94.4041 178.52C95.4281 178.52 96.2387 178.813 96.8361 179.4C97.4334 179.987 97.7321 180.797 97.7321 181.832V185.688C97.7321 185.837 97.7641 185.949 97.8281 186.024C97.8921 186.088 97.9934 186.125 98.1321 186.136V187C98.0147 187.011 97.9134 187.021 97.8281 187.032C97.7427 187.043 97.6787 187.043 97.6361 187.032C97.3694 187.021 97.1667 186.936 97.0281 186.776C96.8894 186.616 96.8147 186.445 96.8041 186.264L96.7881 185.656C96.4147 186.136 95.9294 186.509 95.3321 186.776C94.7347 187.032 94.1267 187.16 93.5081 187.16C92.9747 187.16 92.4894 187.048 92.0521 186.824C91.6254 186.589 91.2894 186.28 91.0441 185.896C90.8094 185.501 90.6921 185.069 90.6921 184.6ZM96.2761 185.24C96.3934 185.091 96.4841 184.947 96.5481 184.808C96.6121 184.669 96.6441 184.547 96.6441 184.44V183.224C96.2814 183.085 95.9027 182.979 95.5081 182.904C95.1241 182.829 94.7347 182.792 94.3401 182.792C93.5614 182.792 92.9321 182.947 92.4521 183.256C91.9721 183.565 91.7321 183.987 91.7321 184.52C91.7321 184.829 91.8121 185.123 91.9721 185.4C92.1321 185.667 92.3667 185.891 92.6761 186.072C92.9854 186.243 93.3481 186.328 93.7641 186.328C94.2867 186.328 94.7721 186.227 95.2201 186.024C95.6787 185.821 96.0307 185.56 96.2761 185.24ZM102.819 187.16C102.136 187.16 101.501 187.048 100.915 186.824C100.328 186.6 99.8215 186.259 99.3948 185.8L99.8428 185.032C100.312 185.469 100.781 185.789 101.251 185.992C101.731 186.184 102.237 186.28 102.771 186.28C103.421 186.28 103.949 186.152 104.355 185.896C104.76 185.629 104.963 185.251 104.963 184.76C104.963 184.429 104.861 184.179 104.659 184.008C104.467 183.827 104.184 183.683 103.811 183.576C103.448 183.459 103.011 183.336 102.499 183.208C101.923 183.048 101.437 182.883 101.043 182.712C100.659 182.531 100.365 182.307 100.163 182.04C99.9708 181.763 99.8748 181.405 99.8748 180.968C99.8748 180.424 100.008 179.976 100.275 179.624C100.552 179.261 100.925 178.989 101.395 178.808C101.875 178.616 102.408 178.52 102.995 178.52C103.635 178.52 104.2 178.621 104.691 178.824C105.181 179.027 105.581 179.309 105.891 179.672L105.363 180.408C105.064 180.067 104.707 179.816 104.291 179.656C103.885 179.485 103.432 179.4 102.931 179.4C102.589 179.4 102.264 179.448 101.955 179.544C101.645 179.629 101.389 179.779 101.187 179.992C100.995 180.195 100.899 180.477 100.899 180.84C100.899 181.139 100.973 181.373 101.123 181.544C101.272 181.704 101.496 181.843 101.795 181.96C102.093 182.067 102.461 182.184 102.899 182.312C103.528 182.483 104.077 182.659 104.547 182.84C105.016 183.011 105.379 183.235 105.635 183.512C105.891 183.789 106.019 184.179 106.019 184.68C106.019 185.459 105.725 186.067 105.139 186.504C104.552 186.941 103.779 187.16 102.819 187.16ZM115.895 186.6C115.81 186.632 115.677 186.691 115.495 186.776C115.314 186.861 115.095 186.936 114.839 187C114.583 187.064 114.306 187.096 114.007 187.096C113.698 187.096 113.405 187.037 113.127 186.92C112.861 186.803 112.647 186.627 112.487 186.392C112.327 186.147 112.247 185.848 112.247 185.496V179.528H111.095V178.664H112.247V175.848H113.335V178.664H115.255V179.528H113.335V185.192C113.357 185.491 113.463 185.715 113.655 185.864C113.858 186.013 114.087 186.088 114.343 186.088C114.642 186.088 114.914 186.04 115.159 185.944C115.405 185.837 115.554 185.763 115.607 185.72L115.895 186.6ZM120.714 187.16C120.117 187.16 119.562 187.048 119.05 186.824C118.538 186.589 118.095 186.275 117.722 185.88C117.349 185.475 117.055 185.011 116.842 184.488C116.639 183.965 116.538 183.405 116.538 182.808C116.538 182.029 116.714 181.315 117.066 180.664C117.429 180.013 117.925 179.496 118.554 179.112C119.183 178.717 119.898 178.52 120.698 178.52C121.519 178.52 122.234 178.717 122.842 179.112C123.461 179.507 123.946 180.029 124.298 180.68C124.65 181.32 124.826 182.024 124.826 182.792C124.826 182.877 124.826 182.963 124.826 183.048C124.826 183.123 124.821 183.181 124.81 183.224H117.674C117.727 183.821 117.893 184.355 118.17 184.824C118.458 185.283 118.826 185.651 119.274 185.928C119.733 186.195 120.229 186.328 120.762 186.328C121.306 186.328 121.818 186.189 122.298 185.912C122.789 185.635 123.13 185.272 123.322 184.824L124.266 185.08C124.095 185.475 123.834 185.832 123.482 186.152C123.13 186.472 122.714 186.723 122.234 186.904C121.765 187.075 121.258 187.16 120.714 187.16ZM117.642 182.44H123.802C123.759 181.832 123.594 181.299 123.306 180.84C123.029 180.381 122.661 180.024 122.202 179.768C121.754 179.501 121.258 179.368 120.714 179.368C120.17 179.368 119.674 179.501 119.226 179.768C118.778 180.024 118.41 180.387 118.122 180.856C117.845 181.315 117.685 181.843 117.642 182.44ZM138.905 187H137.817V182.344C137.817 181.373 137.662 180.659 137.353 180.2C137.043 179.741 136.585 179.512 135.977 179.512C135.347 179.512 134.782 179.736 134.281 180.184C133.79 180.632 133.443 181.208 133.241 181.912V187H132.153V182.344C132.153 181.363 132.003 180.648 131.705 180.2C131.406 179.741 130.947 179.512 130.329 179.512C129.71 179.512 129.15 179.731 128.649 180.168C128.147 180.605 127.795 181.181 127.593 181.896V187H126.505V178.664H127.497V180.552C127.849 179.901 128.297 179.4 128.841 179.048C129.395 178.696 130.009 178.52 130.681 178.52C131.374 178.52 131.934 178.717 132.361 179.112C132.787 179.507 133.049 180.024 133.145 180.664C133.529 179.96 133.987 179.427 134.521 179.064C135.065 178.701 135.678 178.52 136.361 178.52C136.83 178.52 137.225 178.605 137.545 178.776C137.875 178.947 138.137 179.192 138.329 179.512C138.531 179.821 138.675 180.2 138.761 180.648C138.857 181.085 138.905 181.576 138.905 182.12V187ZM140.536 184.6C140.536 184.077 140.685 183.629 140.984 183.256C141.282 182.872 141.693 182.579 142.216 182.376C142.749 182.163 143.362 182.056 144.056 182.056C144.461 182.056 144.882 182.088 145.32 182.152C145.757 182.216 146.146 182.312 146.488 182.44V181.736C146.488 181.032 146.28 180.472 145.864 180.056C145.448 179.64 144.872 179.432 144.136 179.432C143.688 179.432 143.245 179.517 142.808 179.688C142.381 179.848 141.933 180.088 141.464 180.408L141.048 179.64C141.592 179.267 142.125 178.989 142.648 178.808C143.17 178.616 143.704 178.52 144.248 178.52C145.272 178.52 146.082 178.813 146.68 179.4C147.277 179.987 147.576 180.797 147.576 181.832V185.688C147.576 185.837 147.608 185.949 147.672 186.024C147.736 186.088 147.837 186.125 147.976 186.136V187C147.858 187.011 147.757 187.021 147.672 187.032C147.586 187.043 147.522 187.043 147.48 187.032C147.213 187.021 147.01 186.936 146.872 186.776C146.733 186.616 146.658 186.445 146.648 186.264L146.632 185.656C146.258 186.136 145.773 186.509 145.176 186.776C144.578 187.032 143.97 187.16 143.352 187.16C142.818 187.16 142.333 187.048 141.896 186.824C141.469 186.589 141.133 186.28 140.888 185.896C140.653 185.501 140.536 185.069 140.536 184.6ZM146.12 185.24C146.237 185.091 146.328 184.947 146.392 184.808C146.456 184.669 146.488 184.547 146.488 184.44V183.224C146.125 183.085 145.746 182.979 145.352 182.904C144.968 182.829 144.578 182.792 144.184 182.792C143.405 182.792 142.776 182.947 142.296 183.256C141.816 183.565 141.576 183.987 141.576 184.52C141.576 184.829 141.656 185.123 141.816 185.4C141.976 185.667 142.21 185.891 142.52 186.072C142.829 186.243 143.192 186.328 143.608 186.328C144.13 186.328 144.616 186.227 145.064 186.024C145.522 185.821 145.874 185.56 146.12 185.24ZM144.6 177.08L143.88 176.808L144.824 175.32H145.976L144.6 177.08ZM153.864 186.6C153.779 186.632 153.645 186.691 153.464 186.776C153.283 186.861 153.064 186.936 152.808 187C152.552 187.064 152.275 187.096 151.976 187.096C151.667 187.096 151.373 187.037 151.096 186.92C150.829 186.803 150.616 186.627 150.456 186.392C150.296 186.147 150.216 185.848 150.216 185.496V179.528H149.064V178.664H150.216V175.848H151.304V178.664H153.224V179.528H151.304V185.192C151.325 185.491 151.432 185.715 151.624 185.864C151.827 186.013 152.056 186.088 152.312 186.088C152.611 186.088 152.883 186.04 153.128 185.944C153.373 185.837 153.523 185.763 153.576 185.72L153.864 186.6ZM155.223 187V178.664H156.311V187H155.223ZM155.223 176.92V175.32H156.311V176.92H155.223ZM162.324 187.16C161.716 187.16 161.156 187.048 160.644 186.824C160.142 186.589 159.7 186.269 159.316 185.864C158.942 185.459 158.649 184.995 158.436 184.472C158.233 183.949 158.132 183.395 158.132 182.808C158.132 182.019 158.308 181.299 158.66 180.648C159.012 179.997 159.502 179.48 160.132 179.096C160.761 178.712 161.486 178.52 162.308 178.52C163.086 178.52 163.774 178.701 164.372 179.064C164.969 179.416 165.412 179.896 165.7 180.504L164.644 180.84C164.409 180.413 164.078 180.083 163.652 179.848C163.236 179.603 162.772 179.48 162.26 179.48C161.705 179.48 161.198 179.624 160.74 179.912C160.281 180.2 159.913 180.595 159.636 181.096C159.369 181.597 159.236 182.168 159.236 182.808C159.236 183.437 159.374 184.008 159.652 184.52C159.929 185.032 160.297 185.443 160.756 185.752C161.214 186.051 161.721 186.2 162.276 186.2C162.638 186.2 162.985 186.136 163.316 186.008C163.657 185.88 163.95 185.709 164.196 185.496C164.452 185.272 164.622 185.032 164.708 184.776L165.78 185.096C165.63 185.491 165.38 185.848 165.028 186.168C164.686 186.477 164.281 186.723 163.812 186.904C163.353 187.075 162.857 187.16 162.324 187.16ZM170.963 187.16C170.366 187.16 169.811 187.048 169.299 186.824C168.798 186.589 168.36 186.275 167.987 185.88C167.624 185.475 167.342 185.016 167.139 184.504C166.936 183.981 166.835 183.432 166.835 182.856C166.835 182.259 166.936 181.704 167.139 181.192C167.342 180.669 167.63 180.211 168.003 179.816C168.376 179.411 168.814 179.096 169.315 178.872C169.827 178.637 170.382 178.52 170.979 178.52C171.576 178.52 172.126 178.637 172.627 178.872C173.128 179.096 173.566 179.411 173.939 179.816C174.312 180.211 174.6 180.669 174.803 181.192C175.006 181.704 175.107 182.259 175.107 182.856C175.107 183.432 175.006 183.981 174.803 184.504C174.6 185.016 174.312 185.475 173.939 185.88C173.576 186.275 173.139 186.589 172.627 186.824C172.126 187.048 171.571 187.16 170.963 187.16ZM167.939 182.872C167.939 183.491 168.072 184.056 168.339 184.568C168.616 185.069 168.984 185.469 169.443 185.768C169.902 186.056 170.408 186.2 170.963 186.2C171.518 186.2 172.024 186.051 172.483 185.752C172.942 185.453 173.31 185.048 173.587 184.536C173.864 184.013 174.003 183.448 174.003 182.84C174.003 182.221 173.864 181.656 173.587 181.144C173.31 180.632 172.942 180.227 172.483 179.928C172.024 179.629 171.518 179.48 170.963 179.48C170.408 179.48 169.902 179.635 169.443 179.944C168.995 180.253 168.632 180.664 168.355 181.176C168.078 181.677 167.939 182.243 167.939 182.872Z" fill="#F8FBFB"/>
    <path d="M206.05 0.16496C205.589 -0.138901 204.969 -0.0113689 204.665 0.449811C204.361 0.910991 204.489 1.53118 204.95 1.83504L206.05 0.16496ZM87.8552 153.264C88.2773 153.62 88.9082 153.567 89.2644 153.145L95.0688 146.267C95.425 145.845 95.3716 145.214 94.9495 144.858C94.5274 144.501 93.8965 144.555 93.5403 144.977L88.3808 151.091L82.267 145.931C81.8449 145.575 81.214 145.629 80.8578 146.051C80.5016 146.473 80.555 147.104 80.9771 147.46L87.8552 153.264ZM204.95 1.83504C218.292 10.6258 226.213 18.0242 230.006 24.3871C231.893 27.5522 232.737 30.4257 232.75 33.0675C232.764 35.7032 231.951 38.1868 230.396 40.5802C227.255 45.4139 221.131 49.8152 212.928 54.1143C204.754 58.3985 194.669 62.5054 183.757 66.8201C161.989 75.4276 136.954 84.847 117.884 98.0529C98.784 111.28 85.4609 128.454 87.5037 152.584L89.4966 152.416C87.5393 129.296 100.216 112.72 119.023 99.6971C137.859 86.653 162.636 77.3224 184.493 68.6799C195.394 64.3696 205.574 60.2265 213.857 55.8857C222.111 51.5598 228.635 46.9611 232.073 41.6698C233.807 39.0007 234.766 36.1405 234.75 33.0575C234.735 29.9806 233.749 26.7603 231.724 23.3629C227.693 16.6008 219.458 8.99923 206.05 0.16496L204.95 1.83504Z" fill="#7D298A"/>
</svg>
