<svg width="125" height="168" viewBox="0 0 125 168" fill="none" xmlns="http://www.w3.org/2000/svg">
    <path d="M9.22581 9.072C9.22581 9.63733 9.08181 10.144 8.79381 10.592C8.50581 11.0293 8.11648 11.376 7.62581 11.632C7.14581 11.8773 6.61781 12 6.04181 12H0.681813V0.639999H6.15381C6.68715 0.639999 7.14581 0.783999 7.52981 1.072C7.92448 1.34933 8.22315 1.712 8.42581 2.16C8.63915 2.59733 8.74581 3.056 8.74581 3.536C8.74581 4.10133 8.60181 4.624 8.31381 5.104C8.02581 5.584 7.62581 5.94133 7.11381 6.176C7.76448 6.368 8.27648 6.72533 8.64981 7.248C9.03381 7.77067 9.22581 8.37867 9.22581 9.072ZM8.10581 8.88C8.10581 8.496 8.02048 8.144 7.84981 7.824C7.67915 7.49333 7.44448 7.22667 7.14581 7.024C6.85781 6.82133 6.52715 6.72 6.15381 6.72H1.80181V11.024H6.04181C6.42581 11.024 6.77248 10.9227 7.08181 10.72C7.39115 10.5173 7.63648 10.256 7.81781 9.936C8.00981 9.60533 8.10581 9.25333 8.10581 8.88ZM1.80181 1.616V5.808H5.70581C6.07915 5.808 6.40981 5.712 6.69781 5.52C6.98581 5.31733 7.21515 5.056 7.38581 4.736C7.55648 4.416 7.64181 4.07467 7.64181 3.712C7.64181 3.328 7.56181 2.98133 7.40181 2.672C7.24181 2.352 7.02315 2.096 6.74581 1.904C6.46848 1.712 6.15381 1.616 5.80181 1.616H1.80181ZM15.2741 4.624C14.5487 4.64533 13.9087 4.848 13.3541 5.232C12.8101 5.616 12.4261 6.144 12.2021 6.816V12H11.1141V3.664H12.1381V5.664C12.4261 5.07733 12.8047 4.60267 13.2741 4.24C13.7541 3.87733 14.2607 3.67467 14.7941 3.632C14.9007 3.62133 14.9914 3.616 15.0661 3.616C15.1514 3.616 15.2207 3.62133 15.2741 3.632V4.624ZM20.0098 12.16C19.4125 12.16 18.8578 12.048 18.3458 11.824C17.8445 11.5893 17.4071 11.2747 17.0338 10.88C16.6711 10.4747 16.3885 10.016 16.1858 9.504C15.9831 8.98133 15.8818 8.432 15.8818 7.856C15.8818 7.25867 15.9831 6.704 16.1858 6.192C16.3885 5.66933 16.6765 5.21067 17.0498 4.816C17.4231 4.41067 17.8605 4.096 18.3618 3.872C18.8738 3.63733 19.4285 3.52 20.0258 3.52C20.6231 3.52 21.1725 3.63733 21.6738 3.872C22.1751 4.096 22.6125 4.41067 22.9858 4.816C23.3591 5.21067 23.6471 5.66933 23.8498 6.192C24.0525 6.704 24.1538 7.25867 24.1538 7.856C24.1538 8.432 24.0525 8.98133 23.8498 9.504C23.6471 10.016 23.3591 10.4747 22.9858 10.88C22.6231 11.2747 22.1858 11.5893 21.6738 11.824C21.1725 12.048 20.6178 12.16 20.0098 12.16ZM16.9858 7.872C16.9858 8.49067 17.1191 9.056 17.3858 9.568C17.6631 10.0693 18.0311 10.4693 18.4898 10.768C18.9485 11.056 19.4551 11.2 20.0098 11.2C20.5645 11.2 21.0711 11.0507 21.5298 10.752C21.9885 10.4533 22.3565 10.048 22.6338 9.536C22.9111 9.01333 23.0498 8.448 23.0498 7.84C23.0498 7.22133 22.9111 6.656 22.6338 6.144C22.3565 5.632 21.9885 5.22667 21.5298 4.928C21.0711 4.62933 20.5645 4.48 20.0098 4.48C19.4551 4.48 18.9485 4.63467 18.4898 4.944C18.0418 5.25333 17.6791 5.664 17.4018 6.176C17.1245 6.67733 16.9858 7.24267 16.9858 7.872ZM29.5894 12.16C28.9814 12.16 28.4214 12.048 27.9094 11.824C27.4081 11.5893 26.9654 11.2693 26.5814 10.864C26.2081 10.4587 25.9148 9.99467 25.7014 9.472C25.4988 8.94933 25.3974 8.39467 25.3974 7.808C25.3974 7.01867 25.5734 6.29867 25.9254 5.648C26.2774 4.99733 26.7681 4.48 27.3974 4.096C28.0268 3.712 28.7521 3.52 29.5734 3.52C30.3521 3.52 31.0401 3.70133 31.6374 4.064C32.2348 4.416 32.6774 4.896 32.9654 5.504L31.9094 5.84C31.6748 5.41333 31.3441 5.08267 30.9174 4.848C30.5014 4.60267 30.0374 4.48 29.5254 4.48C28.9708 4.48 28.4641 4.624 28.0054 4.912C27.5468 5.2 27.1788 5.59467 26.9014 6.096C26.6348 6.59733 26.5014 7.168 26.5014 7.808C26.5014 8.43733 26.6401 9.008 26.9174 9.52C27.1948 10.032 27.5628 10.4427 28.0214 10.752C28.4801 11.0507 28.9868 11.2 29.5414 11.2C29.9041 11.2 30.2508 11.136 30.5814 11.008C30.9228 10.88 31.2161 10.7093 31.4614 10.496C31.7174 10.272 31.8881 10.032 31.9734 9.776L33.0454 10.096C32.8961 10.4907 32.6454 10.848 32.2934 11.168C31.9521 11.4773 31.5468 11.7227 31.0774 11.904C30.6188 12.0747 30.1228 12.16 29.5894 12.16ZM41.7627 12H40.6747V7.344C40.6747 6.40533 40.5094 5.70133 40.1787 5.232C39.848 4.752 39.3734 4.512 38.7547 4.512C38.3494 4.512 37.944 4.61867 37.5387 4.832C37.144 5.03467 36.792 5.31733 36.4827 5.68C36.184 6.032 35.9707 6.43733 35.8427 6.896V12H34.7547V0.32H35.8427V5.552C36.1734 4.93333 36.632 4.44267 37.2187 4.08C37.816 3.70667 38.4507 3.52 39.1227 3.52C39.6027 3.52 40.008 3.60533 40.3387 3.776C40.68 3.94667 40.952 4.19733 41.1547 4.528C41.368 4.848 41.5227 5.22667 41.6187 5.664C41.7147 6.09067 41.7627 6.576 41.7627 7.12V12ZM47.6828 12.16C47.0855 12.16 46.5308 12.048 46.0188 11.824C45.5068 11.5893 45.0641 11.2747 44.6908 10.88C44.3175 10.4747 44.0241 10.0107 43.8108 9.488C43.6081 8.96533 43.5068 8.40533 43.5068 7.808C43.5068 7.02933 43.6828 6.31467 44.0348 5.664C44.3975 5.01333 44.8935 4.496 45.5228 4.112C46.1521 3.71733 46.8668 3.52 47.6668 3.52C48.4881 3.52 49.2028 3.71733 49.8108 4.112C50.4295 4.50667 50.9148 5.02933 51.2668 5.68C51.6188 6.32 51.7948 7.024 51.7948 7.792C51.7948 7.87733 51.7948 7.96267 51.7948 8.048C51.7948 8.12267 51.7895 8.18133 51.7788 8.224H44.6428C44.6961 8.82133 44.8615 9.35467 45.1388 9.824C45.4268 10.2827 45.7948 10.6507 46.2428 10.928C46.7015 11.1947 47.1975 11.328 47.7308 11.328C48.2748 11.328 48.7868 11.1893 49.2668 10.912C49.7575 10.6347 50.0988 10.272 50.2908 9.824L51.2348 10.08C51.0641 10.4747 50.8028 10.832 50.4508 11.152C50.0988 11.472 49.6828 11.7227 49.2028 11.904C48.7335 12.0747 48.2268 12.16 47.6828 12.16ZM44.6108 7.44H50.7708C50.7281 6.832 50.5628 6.29867 50.2748 5.84C49.9975 5.38133 49.6295 5.024 49.1708 4.768C48.7228 4.50133 48.2268 4.368 47.6828 4.368C47.1388 4.368 46.6428 4.50133 46.1948 4.768C45.7468 5.024 45.3788 5.38667 45.0908 5.856C44.8135 6.31467 44.6535 6.84267 44.6108 7.44ZM61.1516 12.16C60.5542 12.16 59.9996 12.048 59.4876 11.824C58.9756 11.5893 58.5329 11.2747 58.1596 10.88C57.7862 10.4747 57.4929 10.0107 57.2796 9.488C57.0769 8.96533 56.9756 8.40533 56.9756 7.808C56.9756 7.02933 57.1516 6.31467 57.5036 5.664C57.8662 5.01333 58.3622 4.496 58.9916 4.112C59.6209 3.71733 60.3356 3.52 61.1356 3.52C61.9569 3.52 62.6716 3.71733 63.2796 4.112C63.8982 4.50667 64.3836 5.02933 64.7356 5.68C65.0876 6.32 65.2636 7.024 65.2636 7.792C65.2636 7.87733 65.2636 7.96267 65.2636 8.048C65.2636 8.12267 65.2582 8.18133 65.2476 8.224H58.1116C58.1649 8.82133 58.3302 9.35467 58.6076 9.824C58.8956 10.2827 59.2636 10.6507 59.7116 10.928C60.1702 11.1947 60.6662 11.328 61.1996 11.328C61.7436 11.328 62.2556 11.1893 62.7356 10.912C63.2262 10.6347 63.5676 10.272 63.7596 9.824L64.7036 10.08C64.5329 10.4747 64.2716 10.832 63.9196 11.152C63.5676 11.472 63.1516 11.7227 62.6716 11.904C62.2022 12.0747 61.6956 12.16 61.1516 12.16ZM58.0796 7.44H64.2396C64.1969 6.832 64.0316 6.29867 63.7436 5.84C63.4662 5.38133 63.0982 5.024 62.6396 4.768C62.1916 4.50133 61.6956 4.368 61.1516 4.368C60.6076 4.368 60.1116 4.50133 59.6636 4.768C59.2156 5.024 58.8476 5.38667 58.5596 5.856C58.2822 6.31467 58.1222 6.84267 58.0796 7.44ZM66.8857 3.664L69.3337 6.928L69.4617 7.168L69.5897 6.928L72.0217 3.664H73.2537L70.0857 7.856L73.2537 12H72.0217L69.5897 8.752L69.4617 8.528L69.3337 8.752L66.9017 12H65.6697L68.8217 7.856L65.6697 3.664H66.8857ZM77.9332 12.16C77.3252 12.16 76.7652 12.048 76.2532 11.824C75.7519 11.5893 75.3092 11.2693 74.9252 10.864C74.5519 10.4587 74.2585 9.99467 74.0452 9.472C73.8425 8.94933 73.7412 8.39467 73.7412 7.808C73.7412 7.01867 73.9172 6.29867 74.2692 5.648C74.6212 4.99733 75.1119 4.48 75.7412 4.096C76.3705 3.712 77.0959 3.52 77.9172 3.52C78.6959 3.52 79.3839 3.70133 79.9812 4.064C80.5785 4.416 81.0212 4.896 81.3092 5.504L80.2532 5.84C80.0185 5.41333 79.6879 5.08267 79.2612 4.848C78.8452 4.60267 78.3812 4.48 77.8692 4.48C77.3145 4.48 76.8079 4.624 76.3492 4.912C75.8905 5.2 75.5225 5.59467 75.2452 6.096C74.9785 6.59733 74.8452 7.168 74.8452 7.808C74.8452 8.43733 74.9839 9.008 75.2612 9.52C75.5385 10.032 75.9065 10.4427 76.3652 10.752C76.8239 11.0507 77.3305 11.2 77.8852 11.2C78.2479 11.2 78.5945 11.136 78.9252 11.008C79.2665 10.88 79.5599 10.7093 79.8052 10.496C80.0612 10.272 80.2319 10.032 80.3172 9.776L81.3892 10.096C81.2399 10.4907 80.9892 10.848 80.6372 11.168C80.2959 11.4773 79.8905 11.7227 79.4212 11.904C78.9625 12.0747 78.4665 12.16 77.9332 12.16ZM83.1464 0.32H84.2344V10.112C84.2344 10.528 84.3091 10.8 84.4584 10.928C84.6078 11.056 84.7891 11.12 85.0024 11.12C85.1944 11.12 85.3864 11.0987 85.5784 11.056C85.7704 11.0133 85.9358 10.9707 86.0744 10.928L86.2664 11.808C86.0638 11.8933 85.8131 11.9627 85.5144 12.016C85.2264 12.0693 84.9758 12.096 84.7624 12.096C84.2718 12.096 83.8771 11.952 83.5784 11.664C83.2904 11.376 83.1464 10.9813 83.1464 10.48V0.32ZM87.3778 8.56V3.664H88.4658V8.368C88.4658 9.31733 88.6258 10.0267 88.9458 10.496C89.2765 10.9653 89.7618 11.2 90.4018 11.2C90.8285 11.2 91.2391 11.1093 91.6338 10.928C92.0391 10.736 92.3965 10.4693 92.7058 10.128C93.0151 9.776 93.2498 9.37067 93.4098 8.912V3.664H94.4978V10.688C94.4978 10.8373 94.5298 10.9493 94.5938 11.024C94.6578 11.088 94.7538 11.1253 94.8818 11.136V12C94.7538 12.0107 94.6525 12.016 94.5778 12.016C94.5031 12.0267 94.4338 12.032 94.3698 12.032C94.1565 12.0107 93.9698 11.9253 93.8098 11.776C93.6605 11.6267 93.5805 11.4453 93.5698 11.232L93.5378 10.112C93.1751 10.752 92.6791 11.2533 92.0498 11.616C91.4311 11.9787 90.7591 12.16 90.0338 12.16C89.1591 12.16 88.4978 11.856 88.0498 11.248C87.6018 10.64 87.3778 9.744 87.3778 8.56ZM99.6938 12.16C99.0111 12.16 98.3765 12.048 97.7898 11.824C97.2031 11.6 96.6965 11.2587 96.2698 10.8L96.7178 10.032C97.1871 10.4693 97.6565 10.7893 98.1258 10.992C98.6058 11.184 99.1125 11.28 99.6458 11.28C100.296 11.28 100.824 11.152 101.23 10.896C101.635 10.6293 101.838 10.2507 101.838 9.76C101.838 9.42933 101.736 9.17867 101.534 9.008C101.342 8.82667 101.059 8.68267 100.686 8.576C100.323 8.45867 99.8858 8.336 99.3738 8.208C98.7978 8.048 98.3125 7.88267 97.9178 7.712C97.5338 7.53067 97.2405 7.30667 97.0378 7.04C96.8458 6.76267 96.7498 6.40533 96.7498 5.968C96.7498 5.424 96.8831 4.976 97.1498 4.624C97.4271 4.26133 97.8005 3.98933 98.2698 3.808C98.7498 3.616 99.2831 3.52 99.8698 3.52C100.51 3.52 101.075 3.62133 101.566 3.824C102.056 4.02667 102.456 4.30933 102.766 4.672L102.238 5.408C101.939 5.06667 101.582 4.816 101.166 4.656C100.76 4.48533 100.307 4.4 99.8058 4.4C99.4645 4.4 99.1391 4.448 98.8298 4.544C98.5205 4.62933 98.2645 4.77867 98.0618 4.992C97.8698 5.19467 97.7738 5.47733 97.7738 5.84C97.7738 6.13867 97.8485 6.37333 97.9978 6.544C98.1471 6.704 98.3711 6.84267 98.6698 6.96C98.9685 7.06667 99.3365 7.184 99.7738 7.312C100.403 7.48267 100.952 7.65867 101.422 7.84C101.891 8.01067 102.254 8.23467 102.51 8.512C102.766 8.78933 102.894 9.17867 102.894 9.68C102.894 10.4587 102.6 11.0667 102.014 11.504C101.427 11.9413 100.654 12.16 99.6938 12.16ZM104.692 12V3.664H105.78V12H104.692ZM104.692 1.92V0.32H105.78V1.92H104.692ZM110.657 12L107.281 3.664H108.417L111.265 10.912L114.129 3.664H115.201L111.825 12H110.657ZM119.979 12.16C119.381 12.16 118.827 12.048 118.315 11.824C117.813 11.5893 117.376 11.2747 117.003 10.88C116.64 10.4747 116.357 10.016 116.155 9.504C115.952 8.98133 115.851 8.432 115.851 7.856C115.851 7.25867 115.952 6.704 116.155 6.192C116.357 5.66933 116.645 5.21067 117.019 4.816C117.392 4.41067 117.829 4.096 118.331 3.872C118.843 3.63733 119.397 3.52 119.995 3.52C120.592 3.52 121.141 3.63733 121.643 3.872C122.144 4.096 122.581 4.41067 122.955 4.816C123.328 5.21067 123.616 5.66933 123.819 6.192C124.021 6.704 124.123 7.25867 124.123 7.856C124.123 8.432 124.021 8.98133 123.819 9.504C123.616 10.016 123.328 10.4747 122.955 10.88C122.592 11.2747 122.155 11.5893 121.643 11.824C121.141 12.048 120.587 12.16 119.979 12.16ZM116.955 7.872C116.955 8.49067 117.088 9.056 117.355 9.568C117.632 10.0693 118 10.4693 118.459 10.768C118.917 11.056 119.424 11.2 119.979 11.2C120.533 11.2 121.04 11.0507 121.499 10.752C121.957 10.4533 122.325 10.048 122.603 9.536C122.88 9.01333 123.019 8.448 123.019 7.84C123.019 7.22133 122.88 6.656 122.603 6.144C122.325 5.632 121.957 5.22667 121.499 4.928C121.04 4.62933 120.533 4.48 119.979 4.48C119.424 4.48 118.917 4.63467 118.459 4.944C118.011 5.25333 117.648 5.664 117.371 6.176C117.093 6.67733 116.955 7.24267 116.955 7.872Z" fill="#F8FBFB"/>
    <path d="M119.537 167.269C119.685 167.801 120.237 168.112 120.769 167.963C121.301 167.815 121.612 167.263 121.463 166.731L119.537 167.269ZM15.9997 120L15.0186 120.193L15.9997 120ZM65.2047 39.0212C64.6641 38.9081 64.1341 39.2546 64.021 39.7951L62.1772 48.6043C62.0641 49.1448 62.4106 49.6748 62.9512 49.7879C63.4917 49.901 64.0217 49.5546 64.1348 49.014L65.7737 41.1837L73.604 42.8226C74.1446 42.9357 74.6745 42.5892 74.7877 42.0486C74.9008 41.5081 74.5543 40.9781 74.0138 40.865L65.2047 39.0212ZM121.463 166.731C118.385 155.701 109.741 145.01 98.7694 135.759C87.778 126.492 74.3461 118.582 61.5152 113.142C48.7139 107.714 36.3823 104.689 27.6151 105.323C23.2321 105.64 19.5758 106.884 17.2553 109.383C14.8971 111.922 14.1032 115.551 15.0186 120.193L16.9809 119.807C16.1463 115.574 16.9305 112.672 18.7208 110.744C20.5487 108.776 23.6111 107.618 27.7594 107.318C36.0547 106.718 48.0356 109.599 60.7344 114.983C73.4034 120.355 86.6591 128.164 97.4802 137.288C108.321 146.428 116.615 156.799 119.537 167.269L121.463 166.731ZM15.0186 120.193C15.7216 123.758 17.7214 126.064 20.6361 127.103C23.4721 128.114 27.0407 127.88 30.8844 126.742C38.5895 124.46 47.8862 118.402 55.8988 109.939C71.9199 93.0173 83.1964 66.0028 65.8368 39.4528L64.1628 40.5472C80.8031 65.9972 70.1434 91.9846 54.4464 108.564C46.5999 116.851 37.5921 122.669 30.3164 124.824C26.6698 125.904 23.579 126.029 21.3077 125.219C19.1151 124.438 17.5598 122.743 16.9809 119.807L15.0186 120.193Z" fill="#7D298A"/>
</svg>
