<svg width="255" height="72" viewBox="0 0 255 72" fill="none" xmlns="http://www.w3.org/2000/svg" class="book__arrow">
    <path d="M0.7365 12V0.639999H1.8565V11.008H8.4165V12H0.7365ZM9.84063 12V3.664H10.9286V12H9.84063ZM9.84063 1.92V0.32H10.9286V1.92H9.84063ZM15.805 12L12.429 3.664H13.565L16.413 10.912L19.277 3.664H20.349L16.973 12H15.805ZM26.0163 4.624C25.2909 4.64533 24.6509 4.848 24.0963 5.232C23.5523 5.616 23.1683 6.144 22.9443 6.816V12H21.8563V3.664H22.8803V5.664C23.1683 5.07733 23.5469 4.60267 24.0163 4.24C24.4963 3.87733 25.0029 3.67467 25.5363 3.632C25.6429 3.62133 25.7336 3.616 25.8083 3.616C25.8936 3.616 25.9629 3.62133 26.0163 3.632V4.624ZM30.752 12.16C30.1547 12.16 29.6 12.048 29.088 11.824C28.5867 11.5893 28.1493 11.2747 27.776 10.88C27.4133 10.4747 27.1307 10.016 26.928 9.504C26.7253 8.98133 26.624 8.432 26.624 7.856C26.624 7.25867 26.7253 6.704 26.928 6.192C27.1307 5.66933 27.4187 5.21067 27.792 4.816C28.1653 4.41067 28.6027 4.096 29.104 3.872C29.616 3.63733 30.1707 3.52 30.768 3.52C31.3653 3.52 31.9147 3.63733 32.416 3.872C32.9173 4.096 33.3547 4.41067 33.728 4.816C34.1013 5.21067 34.3893 5.66933 34.592 6.192C34.7947 6.704 34.896 7.25867 34.896 7.856C34.896 8.432 34.7947 8.98133 34.592 9.504C34.3893 10.016 34.1013 10.4747 33.728 10.88C33.3653 11.2747 32.928 11.5893 32.416 11.824C31.9147 12.048 31.36 12.16 30.752 12.16ZM27.728 7.872C27.728 8.49067 27.8613 9.056 28.128 9.568C28.4053 10.0693 28.7733 10.4693 29.232 10.768C29.6907 11.056 30.1973 11.2 30.752 11.2C31.3067 11.2 31.8133 11.0507 32.272 10.752C32.7307 10.4533 33.0987 10.048 33.376 9.536C33.6533 9.01333 33.792 8.448 33.792 7.84C33.792 7.22133 33.6533 6.656 33.376 6.144C33.0987 5.632 32.7307 5.22667 32.272 4.928C31.8133 4.62933 31.3067 4.48 30.752 4.48C30.1973 4.48 29.6907 4.63467 29.232 4.944C28.784 5.25333 28.4213 5.664 28.144 6.176C27.8667 6.67733 27.728 7.24267 27.728 7.872ZM44.3938 12.16C43.7964 12.16 43.2418 12.048 42.7298 11.824C42.2178 11.5893 41.7751 11.2747 41.4018 10.88C41.0284 10.4747 40.7351 10.0107 40.5218 9.488C40.3191 8.96533 40.2178 8.40533 40.2178 7.808C40.2178 7.02933 40.3938 6.31467 40.7458 5.664C41.1084 5.01333 41.6044 4.496 42.2338 4.112C42.8631 3.71733 43.5778 3.52 44.3778 3.52C45.1991 3.52 45.9138 3.71733 46.5218 4.112C47.1404 4.50667 47.6258 5.02933 47.9778 5.68C48.3298 6.32 48.5058 7.024 48.5058 7.792C48.5058 7.87733 48.5058 7.96267 48.5058 8.048C48.5058 8.12267 48.5004 8.18133 48.4898 8.224H41.3538C41.4071 8.82133 41.5724 9.35467 41.8498 9.824C42.1378 10.2827 42.5058 10.6507 42.9538 10.928C43.4124 11.1947 43.9084 11.328 44.4418 11.328C44.9858 11.328 45.4978 11.1893 45.9778 10.912C46.4684 10.6347 46.8098 10.272 47.0018 9.824L47.9458 10.08C47.7751 10.4747 47.5138 10.832 47.1618 11.152C46.8098 11.472 46.3938 11.7227 45.9138 11.904C45.4444 12.0747 44.9378 12.16 44.3938 12.16ZM41.3218 7.44H47.4818C47.4391 6.832 47.2738 6.29867 46.9858 5.84C46.7084 5.38133 46.3404 5.024 45.8818 4.768C45.4338 4.50133 44.9378 4.368 44.3938 4.368C43.8498 4.368 43.3538 4.50133 42.9058 4.768C42.4578 5.024 42.0898 5.38667 41.8018 5.856C41.5244 6.31467 41.3644 6.84267 41.3218 7.44ZM62.5844 12H61.4964V7.344C61.4964 6.37333 61.3417 5.65867 61.0324 5.2C60.723 4.74133 60.2644 4.512 59.6564 4.512C59.027 4.512 58.4617 4.736 57.9604 5.184C57.4697 5.632 57.123 6.208 56.9204 6.912V12H55.8324V7.344C55.8324 6.36267 55.683 5.648 55.3844 5.2C55.0857 4.74133 54.627 4.512 54.0084 4.512C53.3897 4.512 52.8297 4.73067 52.3284 5.168C51.827 5.60533 51.475 6.18133 51.2724 6.896V12H50.1844V3.664H51.1764V5.552C51.5284 4.90133 51.9764 4.4 52.5204 4.048C53.075 3.696 53.6884 3.52 54.3604 3.52C55.0537 3.52 55.6137 3.71733 56.0404 4.112C56.467 4.50667 56.7284 5.024 56.8244 5.664C57.2084 4.96 57.667 4.42667 58.2004 4.064C58.7444 3.70133 59.3577 3.52 60.0404 3.52C60.5097 3.52 60.9044 3.60533 61.2244 3.776C61.555 3.94667 61.8164 4.192 62.0084 4.512C62.211 4.82133 62.355 5.2 62.4404 5.648C62.5364 6.08533 62.5844 6.576 62.5844 7.12V12ZM72.5816 12.16C71.9736 12.16 71.4136 12.048 70.9016 11.824C70.4003 11.5893 69.9576 11.2693 69.5736 10.864C69.2003 10.4587 68.907 9.99467 68.6936 9.472C68.491 8.94933 68.3896 8.39467 68.3896 7.808C68.3896 7.01867 68.5656 6.29867 68.9176 5.648C69.2696 4.99733 69.7603 4.48 70.3896 4.096C71.019 3.712 71.7443 3.52 72.5656 3.52C73.3443 3.52 74.0323 3.70133 74.6296 4.064C75.227 4.416 75.6696 4.896 75.9576 5.504L74.9016 5.84C74.667 5.41333 74.3363 5.08267 73.9096 4.848C73.4936 4.60267 73.0296 4.48 72.5176 4.48C71.963 4.48 71.4563 4.624 70.9976 4.912C70.539 5.2 70.171 5.59467 69.8936 6.096C69.627 6.59733 69.4936 7.168 69.4936 7.808C69.4936 8.43733 69.6323 9.008 69.9096 9.52C70.187 10.032 70.555 10.4427 71.0136 10.752C71.4723 11.0507 71.979 11.2 72.5336 11.2C72.8963 11.2 73.243 11.136 73.5736 11.008C73.915 10.88 74.2083 10.7093 74.4536 10.496C74.7096 10.272 74.8803 10.032 74.9656 9.776L76.0376 10.096C75.8883 10.4907 75.6376 10.848 75.2856 11.168C74.9443 11.4773 74.539 11.7227 74.0696 11.904C73.611 12.0747 73.115 12.16 72.5816 12.16ZM77.0749 9.6C77.0749 9.07733 77.2242 8.62933 77.5229 8.256C77.8215 7.872 78.2322 7.57867 78.7549 7.376C79.2882 7.16267 79.9015 7.056 80.5949 7.056C81.0002 7.056 81.4215 7.088 81.8589 7.152C82.2962 7.216 82.6855 7.312 83.0269 7.44V6.736C83.0269 6.032 82.8189 5.472 82.4029 5.056C81.9869 4.64 81.4109 4.432 80.6749 4.432C80.2269 4.432 79.7842 4.51733 79.3469 4.688C78.9202 4.848 78.4722 5.088 78.0029 5.408L77.5869 4.64C78.1309 4.26667 78.6642 3.98933 79.1869 3.808C79.7095 3.616 80.2429 3.52 80.7869 3.52C81.8109 3.52 82.6215 3.81333 83.2189 4.4C83.8162 4.98667 84.1149 5.79733 84.1149 6.832V10.688C84.1149 10.8373 84.1469 10.9493 84.2109 11.024C84.2749 11.088 84.3762 11.1253 84.5149 11.136V12C84.3975 12.0107 84.2962 12.0213 84.2109 12.032C84.1255 12.0427 84.0615 12.0427 84.0189 12.032C83.7522 12.0213 83.5495 11.936 83.4109 11.776C83.2722 11.616 83.1975 11.4453 83.1869 11.264L83.1709 10.656C82.7975 11.136 82.3122 11.5093 81.7149 11.776C81.1175 12.032 80.5095 12.16 79.8909 12.16C79.3575 12.16 78.8722 12.048 78.4349 11.824C78.0082 11.5893 77.6722 11.28 77.4269 10.896C77.1922 10.5013 77.0749 10.0693 77.0749 9.6ZM82.6589 10.24C82.7762 10.0907 82.8669 9.94667 82.9309 9.808C82.9949 9.66933 83.0269 9.54667 83.0269 9.44V8.224C82.6642 8.08533 82.2855 7.97867 81.8909 7.904C81.5069 7.82933 81.1175 7.792 80.7229 7.792C79.9442 7.792 79.3149 7.94667 78.8349 8.256C78.3549 8.56533 78.1149 8.98667 78.1149 9.52C78.1149 9.82933 78.1949 10.1227 78.3549 10.4C78.5149 10.6667 78.7495 10.8907 79.0589 11.072C79.3682 11.2427 79.7309 11.328 80.1469 11.328C80.6695 11.328 81.1549 11.2267 81.6029 11.024C82.0615 10.8213 82.4135 10.56 82.6589 10.24ZM90.7216 12.16C90.0283 12.16 89.4043 11.9787 88.8496 11.616C88.3056 11.2533 87.8736 10.8053 87.5536 10.272V15.408H86.4656V3.664H87.4416V5.28C87.7723 4.75733 88.215 4.336 88.7696 4.016C89.3243 3.68533 89.9163 3.52 90.5456 3.52C91.1216 3.52 91.6496 3.64267 92.1296 3.888C92.6096 4.12267 93.0256 4.44267 93.3776 4.848C93.7296 5.25333 94.0016 5.71733 94.1936 6.24C94.3963 6.752 94.4976 7.28533 94.4976 7.84C94.4976 8.61867 94.3376 9.33867 94.0176 10C93.7083 10.6507 93.271 11.1733 92.7056 11.568C92.1403 11.9627 91.479 12.16 90.7216 12.16ZM90.4176 11.2C90.8763 11.2 91.287 11.1093 91.6496 10.928C92.0123 10.736 92.3216 10.48 92.5776 10.16C92.8443 9.84 93.047 9.48267 93.1856 9.088C93.3243 8.68267 93.3936 8.26667 93.3936 7.84C93.3936 7.392 93.3136 6.96533 93.1536 6.56C93.0043 6.15467 92.7856 5.79733 92.4976 5.488C92.2096 5.17867 91.879 4.93333 91.5056 4.752C91.1323 4.57067 90.727 4.48 90.2896 4.48C90.0123 4.48 89.7243 4.53333 89.4256 4.64C89.127 4.74667 88.839 4.90133 88.5616 5.104C88.295 5.296 88.071 5.51467 87.8896 5.76C87.7083 6.00533 87.5963 6.26667 87.5536 6.544V9.104C87.7243 9.49867 87.9536 9.856 88.2416 10.176C88.5296 10.4853 88.8603 10.736 89.2336 10.928C89.6176 11.1093 90.0123 11.2 90.4176 11.2ZM95.6686 9.6C95.6686 9.07733 95.818 8.62933 96.1166 8.256C96.4153 7.872 96.826 7.57867 97.3486 7.376C97.882 7.16267 98.4953 7.056 99.1886 7.056C99.594 7.056 100.015 7.088 100.453 7.152C100.89 7.216 101.279 7.312 101.621 7.44V6.736C101.621 6.032 101.413 5.472 100.997 5.056C100.581 4.64 100.005 4.432 99.2686 4.432C98.8206 4.432 98.378 4.51733 97.9406 4.688C97.514 4.848 97.066 5.088 96.5966 5.408L96.1806 4.64C96.7246 4.26667 97.258 3.98933 97.7806 3.808C98.3033 3.616 98.8366 3.52 99.3806 3.52C100.405 3.52 101.215 3.81333 101.813 4.4C102.41 4.98667 102.709 5.79733 102.709 6.832V10.688C102.709 10.8373 102.741 10.9493 102.805 11.024C102.869 11.088 102.97 11.1253 103.109 11.136V12C102.991 12.0107 102.89 12.0213 102.805 12.032C102.719 12.0427 102.655 12.0427 102.613 12.032C102.346 12.0213 102.143 11.936 102.005 11.776C101.866 11.616 101.791 11.4453 101.781 11.264L101.765 10.656C101.391 11.136 100.906 11.5093 100.309 11.776C99.7113 12.032 99.1033 12.16 98.4846 12.16C97.9513 12.16 97.466 12.048 97.0286 11.824C96.602 11.5893 96.266 11.28 96.0206 10.896C95.786 10.5013 95.6686 10.0693 95.6686 9.6ZM101.253 10.24C101.37 10.0907 101.461 9.94667 101.525 9.808C101.589 9.66933 101.621 9.54667 101.621 9.44V8.224C101.258 8.08533 100.879 7.97867 100.485 7.904C100.101 7.82933 99.7113 7.792 99.3166 7.792C98.538 7.792 97.9086 7.94667 97.4286 8.256C96.9486 8.56533 96.7086 8.98667 96.7086 9.52C96.7086 9.82933 96.7886 10.1227 96.9486 10.4C97.1086 10.6667 97.3433 10.8907 97.6526 11.072C97.962 11.2427 98.3246 11.328 98.7406 11.328C99.2633 11.328 99.7486 11.2267 100.197 11.024C100.655 10.8213 101.007 10.56 101.253 10.24ZM108.578 7.856C108.578 7.06667 108.738 6.34667 109.058 5.696C109.388 5.03467 109.842 4.50667 110.418 4.112C110.994 3.71733 111.65 3.52 112.386 3.52C113.079 3.52 113.698 3.70667 114.242 4.08C114.796 4.44267 115.228 4.88533 115.538 5.408V0.32H116.626V10.688C116.626 10.8373 116.658 10.9493 116.722 11.024C116.786 11.088 116.882 11.1253 117.01 11.136V12C116.796 12.032 116.631 12.0427 116.514 12.032C116.29 12.0213 116.092 11.9307 115.922 11.76C115.751 11.5893 115.666 11.4027 115.666 11.2V10.384C115.335 10.928 114.887 11.36 114.322 11.68C113.756 12 113.17 12.16 112.562 12.16C111.986 12.16 111.452 12.0427 110.962 11.808C110.482 11.5733 110.06 11.2533 109.698 10.848C109.346 10.4427 109.068 9.984 108.866 9.472C108.674 8.94933 108.578 8.41067 108.578 7.856ZM115.538 9.136V6.56C115.399 6.176 115.175 5.82933 114.866 5.52C114.556 5.2 114.204 4.94933 113.81 4.768C113.426 4.576 113.042 4.48 112.658 4.48C112.21 4.48 111.804 4.576 111.442 4.768C111.079 4.94933 110.764 5.2 110.498 5.52C110.242 5.84 110.044 6.20267 109.906 6.608C109.767 7.01333 109.698 7.42933 109.698 7.856C109.698 8.304 109.772 8.73067 109.922 9.136C110.082 9.54133 110.306 9.904 110.594 10.224C110.882 10.5333 111.212 10.7733 111.586 10.944C111.959 11.1147 112.364 11.2 112.802 11.2C113.079 11.2 113.367 11.1467 113.666 11.04C113.964 10.9333 114.247 10.7893 114.514 10.608C114.791 10.416 115.02 10.192 115.202 9.936C115.383 9.68 115.495 9.41333 115.538 9.136ZM119.011 8.56V3.664H120.099V8.368C120.099 9.31733 120.259 10.0267 120.579 10.496C120.909 10.9653 121.395 11.2 122.035 11.2C122.461 11.2 122.872 11.1093 123.267 10.928C123.672 10.736 124.029 10.4693 124.339 10.128C124.648 9.776 124.883 9.37067 125.043 8.912V3.664H126.131V10.688C126.131 10.8373 126.163 10.9493 126.227 11.024C126.291 11.088 126.387 11.1253 126.515 11.136V12C126.387 12.0107 126.285 12.016 126.211 12.016C126.136 12.0267 126.067 12.032 126.003 12.032C125.789 12.0107 125.603 11.9253 125.443 11.776C125.293 11.6267 125.213 11.4453 125.203 11.232L125.171 10.112C124.808 10.752 124.312 11.2533 123.683 11.616C123.064 11.9787 122.392 12.16 121.667 12.16C120.792 12.16 120.131 11.856 119.683 11.248C119.235 10.64 119.011 9.744 119.011 8.56ZM132.751 4.624C132.025 4.64533 131.385 4.848 130.831 5.232C130.287 5.616 129.903 6.144 129.679 6.816V12H128.591V3.664H129.615V5.664C129.903 5.07733 130.281 4.60267 130.751 4.24C131.231 3.87733 131.737 3.67467 132.271 3.632C132.377 3.62133 132.468 3.616 132.543 3.616C132.628 3.616 132.697 3.62133 132.751 3.632V4.624ZM133.497 9.6C133.497 9.07733 133.646 8.62933 133.945 8.256C134.243 7.872 134.654 7.57867 135.177 7.376C135.71 7.16267 136.323 7.056 137.017 7.056C137.422 7.056 137.843 7.088 138.281 7.152C138.718 7.216 139.107 7.312 139.449 7.44V6.736C139.449 6.032 139.241 5.472 138.825 5.056C138.409 4.64 137.833 4.432 137.097 4.432C136.649 4.432 136.206 4.51733 135.769 4.688C135.342 4.848 134.894 5.088 134.425 5.408L134.009 4.64C134.553 4.26667 135.086 3.98933 135.609 3.808C136.131 3.616 136.665 3.52 137.209 3.52C138.233 3.52 139.043 3.81333 139.641 4.4C140.238 4.98667 140.537 5.79733 140.537 6.832V10.688C140.537 10.8373 140.569 10.9493 140.633 11.024C140.697 11.088 140.798 11.1253 140.937 11.136V12C140.819 12.0107 140.718 12.0213 140.633 12.032C140.547 12.0427 140.483 12.0427 140.441 12.032C140.174 12.0213 139.971 11.936 139.833 11.776C139.694 11.616 139.619 11.4453 139.609 11.264L139.593 10.656C139.219 11.136 138.734 11.5093 138.137 11.776C137.539 12.032 136.931 12.16 136.313 12.16C135.779 12.16 135.294 12.048 134.857 11.824C134.43 11.5893 134.094 11.28 133.849 10.896C133.614 10.5013 133.497 10.0693 133.497 9.6ZM139.081 10.24C139.198 10.0907 139.289 9.94667 139.353 9.808C139.417 9.66933 139.449 9.54667 139.449 9.44V8.224C139.086 8.08533 138.707 7.97867 138.313 7.904C137.929 7.82933 137.539 7.792 137.145 7.792C136.366 7.792 135.737 7.94667 135.257 8.256C134.777 8.56533 134.537 8.98667 134.537 9.52C134.537 9.82933 134.617 10.1227 134.777 10.4C134.937 10.6667 135.171 10.8907 135.481 11.072C135.79 11.2427 136.153 11.328 136.569 11.328C137.091 11.328 137.577 11.2267 138.025 11.024C138.483 10.8213 138.835 10.56 139.081 10.24Z" fill="#F8FBFB"/>
    <path d="M252.631 70.9944C252.904 71.4745 253.514 71.6423 253.994 71.3692C254.474 71.0962 254.642 70.4856 254.369 70.0056L252.631 70.9944ZM79.3162 39.5513C78.7923 39.3767 78.226 39.6598 78.0513 40.1838L75.2053 48.7219C75.0306 49.2459 75.3138 49.8122 75.8377 49.9868C76.3617 50.1615 76.928 49.8783 77.1026 49.3544L79.6325 41.7649L87.2219 44.2947C87.7459 44.4694 88.3122 44.1862 88.4868 43.6623C88.6615 43.1383 88.3783 42.572 87.8544 42.3974L79.3162 39.5513ZM254.369 70.0056C250.393 63.0154 245.188 58.458 239.046 55.726C232.923 53.0025 225.929 52.1187 218.397 52.3678C203.378 52.8645 185.904 57.8915 168.447 62.2169C150.902 66.5641 133.341 70.2151 117.857 68.1727C102.475 66.1437 89.114 58.4919 79.8944 40.0528L78.1056 40.9472C87.636 60.0081 101.587 68.0438 117.596 70.1555C133.503 72.2538 151.411 68.4985 168.928 64.1582C186.533 59.7962 203.716 54.8544 218.463 54.3667C225.813 54.1236 232.479 54.9937 238.233 57.5534C243.969 60.1046 248.857 64.3597 252.631 70.9944L254.369 70.0056Z" fill="#7D298A"/>
</svg>                    